<svg width="84" height="68" viewBox="0 0 84 68" fill="none" xmlns="http://www.w3.org/2000/svg">
<path d="M4.14045 37.1288C2.02833 35.6394 1.86186 32.568 3.80064 30.8591L35.4049 3.00178C36.8058 1.76691 38.8749 1.6658 40.3896 2.75817L79.9932 31.3195C82.0566 32.8076 82.2249 35.8185 80.3402 37.5272L49.6235 65.3758C48.2362 66.6335 46.162 66.7605 44.6317 65.6814L4.14045 37.1288Z" fill="#10197A"/>
<path d="M40.172 22.0017V26.6297H43.2344V30.6555H40.172V39.1716C40.172 39.8713 40.2982 40.3587 40.5505 40.634C40.8029 40.9093 41.3018 41.0469 42.0473 41.0469C42.6208 41.0469 43.1025 41.0125 43.4925 40.9437V45.0899C42.4487 45.4225 41.3591 45.5888 40.2237 45.5888C38.228 45.5888 36.7541 45.1186 35.8022 44.1781C34.8502 43.2376 34.3742 41.8096 34.3742 39.8942V30.6555H32V26.6297H34.3742V22.0017H40.172Z" fill="white"/>
<rect x="46.6001" y="41.0017" width="5" height="5" fill="#364EAB"/>
</svg>
